<?xml version="1.0" standalone="no"?>
<!DOCTYPE svg PUBLIC "-//W3C//DTD SVG 1.1//EN" "http://www.w3.org/Graphics/SVG/1.1/DTD/svg11.dtd" >
<svg xmlns="http://www.w3.org/2000/svg" xmlns:xlink="http://www.w3.org/1999/xlink" version="1.1">
<metadata>
Created by FontForge 20170731 at Sat Sep 20 23:17:47 1997
 By Aleksey,,,
a_Avante(IntermediateSubSet) *Arsenal Company (c)1997* FAX: (095)924-3775; e-Mail: arsenal@itco.msk.su; Phone: (095)924-5811 (Design and Featuring W.Chufarofsky &#38; M.Slutsker)
</metadata>
<defs>
<font id="AAvanteIntBook" horiz-adv-x="610" >
  <font-face 
    font-family="a_AvanteInt"
    font-weight="300"
    font-stretch="normal"
    units-per-em="1000"
    panose-1="2 11 3 2 2 2 2 2 2 4"
    ascent="800"
    descent="-200"
    x-height="513"
    cap-height="720"
    bbox="-44 -237 1216 905"
    underline-thickness="80"
    underline-position="-300"
    unicode-range="U+0020-2122"
  />
<missing-glyph horiz-adv-x="500" 
d="M63 0v905h375v-905h-375zM125 63h250v780h-250v-780z" />
    <glyph glyph-name=".notdef" horiz-adv-x="500" 
d="M63 0v905h375v-905h-375zM125 63h250v780h-250v-780z" />
    <glyph glyph-name=".null" horiz-adv-x="0" 
 />
    <glyph glyph-name="nonmarkingreturn" horiz-adv-x="270" 
 />
    <glyph glyph-name="space" unicode=" " horiz-adv-x="270" 
 />
    <glyph glyph-name="exclam" unicode="!" horiz-adv-x="290" 
d="M186 186h-82v534h82v-534zM186 0h-82v118h82v-118z" />
    <glyph glyph-name="quotedbl" unicode="&#x22;" horiz-adv-x="290" 
d="M244 443h-58v272h58v-272zM104 443h-57v272h57v-272z" />
    <glyph glyph-name="numbersign" unicode="#" horiz-adv-x="775" 
d="M717 486l-19 -61h-153l-39 -134h164l-18 -61h-164l-67 -230h-71l68 230h-132l-67 -230h-70l66 229h-157l19 61h157l40 135h-170l19 60h169l68 232h70l-67 -232h130l68 232h70l-67 -231h153zM474 425h-131l-38 -135h131z" />
    <glyph glyph-name="dollar" unicode="$" horiz-adv-x="572" 
d="M490 213q0 -81 -43 -139q-47 -62 -125 -70v-119h-76v116q-81 10 -128 68t-47 141h76q0 -134 132 -134q59 0 94 33t35 92q0 60 -38 91q-25 21 -92 41q-93 28 -132 59q-56 45 -56 127q0 77 40 127.5t115 62.5v99h76v-99q144 -20 153 -178h-79q0 48 -31 77.5t-79 29.5
q-53 0 -84 -30.5t-31 -83.5q0 -63 83 -96l154 -60q83 -50 83 -155z" />
    <glyph glyph-name="percent" unicode="%" horiz-adv-x="883" 
d="M840 162q0 -73 -50.5 -124.5t-124.5 -51.5q-72 0 -124.5 51.5t-52.5 123.5q0 73 51.5 124.5t124.5 51.5q74 0 125 -50.5t51 -124.5zM672 730l-396 -744h-66l397 744h65zM395 554q0 -72 -52 -124t-124 -52q-73 0 -124.5 51.5t-51.5 124.5q0 74 51 125t124 51t125 -52
t52 -124zM770 161q0 45 -31 76.5t-76 31.5t-75.5 -31t-30.5 -76q0 -44 31 -76.5t75 -32.5t75.5 32t31.5 76zM324 554q0 45 -31 76.5t-76 31.5q-44 0 -75 -32t-31 -76t31 -76t75 -32t75.5 32t31.5 76z" />
    <glyph glyph-name="ampersand" unicode="&#x26;" horiz-adv-x="700" 
d="M688 64l-51 -60l-147 133q-75 -151 -216 -151q-86 0 -148 63.5t-62 149.5q0 130 140 205q-86 72 -86 154q0 72 50.5 120.5t123.5 48.5q68 0 116.5 -49.5t48.5 -117.5q0 -103 -129 -167l133 -124l76 203l83 -12l-97 -247zM374 561q0 37 -24 64t-61 27q-41 0 -65 -25.5
t-24 -66.5q0 -59 76 -119q98 44 98 120zM429 192l-173 161q-107 -53 -107 -152q0 -55 35 -94.5t90 -39.5q90 0 155 125z" />
    <glyph glyph-name="quotesingle" unicode="'" horiz-adv-x="148" 
d="M104 443h-58v272h58v-272z" />
    <glyph glyph-name="parenleft" unicode="(" horiz-adv-x="273" 
d="M233 -216q-171 80 -171 305v343q0 222 171 302v-99q-53 -30 -73 -94q-14 -45 -14 -122v-313q0 -82 13 -125q19 -64 74 -99v-98z" />
    <glyph glyph-name="parenright" unicode=")" horiz-adv-x="273" 
d="M212 90q0 -111 -37 -182q-41 -79 -135 -124v98q56 36 75 100q13 43 13 127v309q0 82 -13 123q-19 63 -75 94v99q172 -82 172 -301v-343z" />
    <glyph glyph-name="asterisk" unicode="*" horiz-adv-x="502" 
d="M445 548l-146 -41l99 -122l-57 -41l-90 128l-89 -128l-58 40l97 123l-144 40l22 67l139 -48v149h64v-149l139 48z" />
    <glyph glyph-name="plus" unicode="+" horiz-adv-x="839" 
d="M714 274h-264v-271h-61v271h-265v58h265v271h61v-271h264v-58z" />
    <glyph glyph-name="comma" unicode="," horiz-adv-x="284" 
d="M123 -80h-71l75 211h71z" />
    <glyph glyph-name="hyphen" unicode="-" horiz-adv-x="328" 
d="M282 233h-237v76h237v-76z" />
    <glyph glyph-name="hyphen" unicode="&#x2010;" horiz-adv-x="328" 
d="M282 233h-237v76h237v-76z" />
    <glyph glyph-name="period" unicode="." horiz-adv-x="283" 
d="M177 0h-72v131h72v-131z" />
    <glyph glyph-name="slash" unicode="/" horiz-adv-x="281" 
d="M280 727l-241 -821h-65l242 821h64z" />
    <glyph glyph-name="zero" unicode="0" horiz-adv-x="572" 
d="M528 248q0 -120 -60 -189q-63 -73 -181 -73q-117 0 -182 75q-61 71 -61 190v213q0 118 62 190q65 76 181 76q118 0 181 -73q60 -69 60 -189v-220zM130 479v-250q0 -76 40.5 -120.5t115.5 -44.5q156 0 156 171v244q0 172 -155 172q-157 0 -157 -172z" />
    <glyph glyph-name="one" unicode="1" horiz-adv-x="572" 
d="M466 0h-349v78h136v566h-105v72h190v-638h128v-78z" />
    <glyph glyph-name="two" unicode="2" horiz-adv-x="574" 
d="M514 0h-451v81l254 244q55 53 75 79q37 51 37 100q0 149 -143 149q-73 0 -109 -52q-31 -45 -31 -121h-83v5q0 109 62.5 178.5t169.5 69.5q103 0 161 -61t58 -165t-108 -205l-236 -221h344v-81z" />
    <glyph glyph-name="three" unicode="3" horiz-adv-x="573" 
d="M519 221q0 -98 -69 -166.5t-167 -68.5q-105 0 -167.5 66.5t-62.5 172.5h86q0 -162 140 -162q67 0 110 42t43 109q0 186 -162 186q-24 0 -66 -13l-33 50l198 204h-276v79h384v-74l-175 -175q217 -14 217 -250z" />
    <glyph glyph-name="four" unicode="4" horiz-adv-x="572" 
d="M538 132h-80v-132h-83v132h-326v75l321 509h87v-509h81v-75zM374 207v389l-241 -389h241z" />
    <glyph glyph-name="five" unicode="5" horiz-adv-x="573" 
d="M533 243q0 -109 -72.5 -183t-181.5 -74q-100 0 -169 65.5t-69 165.5h83q4 -65 49 -108t110 -43q76 0 121 52q43 49 43 126q0 79 -42.5 123.5t-120.5 44.5q-95 0 -139 -71l-71 19l65 360h335v-80h-269l-36 -187h1q55 39 125 39q107 0 172.5 -70.5t65.5 -178.5z" />
    <glyph glyph-name="six" unicode="6" horiz-adv-x="573" 
d="M531 236q0 -104 -71 -177t-175 -73q-98 0 -171 70.5t-73 168.5q0 89 104 248l159 243h99l-167 -254q33 12 71 12q98 0 161 -69.5t63 -168.5zM444 233h1q0 71 -43 119t-114 48q-68 0 -116 -48t-48 -116t47.5 -119.5t115.5 -51.5q70 0 114 50q43 47 43 118z" />
    <glyph glyph-name="seven" unicode="7" horiz-adv-x="573" 
d="M497 638l-274 -638h-90l279 638h-326v82h411v-82z" />
    <glyph glyph-name="eight" unicode="8" horiz-adv-x="573" 
d="M511 214q0 -101 -64 -165t-165 -64q-93 0 -157.5 66t-64.5 159q0 134 109 188q0 3 -2 5q-21 18 -30 27q-15 15 -25 32q-20 35 -20 78q0 79 56.5 134.5t135.5 55.5q81 0 138.5 -53t57.5 -134q0 -89 -79 -142q0 -1 2 -4q108 -50 108 -183zM396 545l1 -1q0 48 -30.5 78.5
t-78.5 30.5q-47 0 -79.5 -30t-32.5 -77q0 -48 28.5 -79t76.5 -31q52 0 83.5 28.5t31.5 80.5zM275 357q-62 0 -97 -41.5t-35 -104.5q0 -59 40 -103t99 -44q64 0 105 41.5t41 105.5q0 66 -37 106t-102 40h-14z" />
    <glyph glyph-name="nine" unicode="9" horiz-adv-x="573" 
d="M268 0h-98l167 252q-8 -1 -36 -8q-22 -5 -36 -5q-96 0 -161 73q-63 70 -63 167q0 105 70 178t175 73q108 0 175.5 -69t67.5 -177q0 -26 -4 -49q-10 -59 -97 -191zM444 479h1q0 70 -45.5 120.5t-114.5 50.5q-72 0 -115.5 -47t-43.5 -120q0 -71 43.5 -119t114.5 -48
q67 0 113.5 47.5t46.5 115.5z" />
    <glyph glyph-name="colon" unicode=":" horiz-adv-x="287" 
d="M180 0h-72v131h72v-131zM180 382h-72v131h72v-131z" />
    <glyph glyph-name="semicolon" unicode=";" horiz-adv-x="288" 
d="M180 513v-132h-71v132h71zM123 -79h-72l73 210h75z" />
    <glyph glyph-name="less" unicode="&#x3c;" horiz-adv-x="840" 
d="M709 38l-579 237v50l579 239v-64l-493 -200l493 -199v-63z" />
    <glyph glyph-name="equal" unicode="=" horiz-adv-x="839" 
d="M714 366h-589v58h589v-58zM714 176h-589v57h589v-57z" />
    <glyph glyph-name="greater" unicode="&#x3e;" horiz-adv-x="840" 
d="M709 275l-579 -237v62l494 200l-494 200v64l579 -238v-51z" />
    <glyph glyph-name="question" unicode="?" horiz-adv-x="477" 
d="M437 528q0 -74 -44 -130q-41 -43 -81 -87q-44 -53 -44 -120h-83q0 95 71 179q32 35 63 69q30 39 30 89q0 57 -33 88t-91 31q-125 0 -125 -143h-83q0 94 59.5 160t152.5 66t150.5 -55t57.5 -147zM266 0h-81v122h81v-122z" />
    <glyph glyph-name="at" unicode="@" horiz-adv-x="1008" 
d="M953 384q0 -127 -72 -222q-78 -103 -202 -103q-77 0 -96 79q-55 -78 -147 -78q-154 0 -154 162q0 106 61 185q67 85 170 85q89 0 122 -80l24 65h60l-70 -283q-6 -24 -6 -37q0 -47 51 -47q88 0 146 94q51 82 51 176q0 136 -107 216q-97 72 -238 72q-179 0 -304 -118
t-125 -296q0 -162 114 -258q108 -91 273 -91q172 0 309 94l23 -32q-146 -108 -324 -108q-192 0 -320 103q-137 110 -137 298q0 199 149 331q142 127 344 127q161 0 276 -85q129 -94 129 -249zM621 351q-16 96 -102 96q-81 0 -129 -76q-41 -65 -41 -152q0 -50 24 -80
q26 -33 75 -33q53 0 93 38q36 34 50 88z" />
    <glyph glyph-name="A" unicode="A" horiz-adv-x="602" 
d="M619 0h-92l-85 223h-287l-86 -223h-91l281 720h79zM412 303l-112 297l-3 -2l-113 -295h228z" />
    <glyph glyph-name="B" unicode="B" horiz-adv-x="523" 
d="M489 215q0 -215 -259 -215h-163v720h144q237 0 237 -192q0 -102 -90 -141q131 -40 131 -172zM150 642v-232h70q142 0 142 120q0 112 -151 112h-61zM150 339v-261h86q166 0 166 126q0 76 -43 108q-37 27 -116 27h-93z" />
    <glyph glyph-name="C" unicode="C" horiz-adv-x="751" 
d="M719 178q-47 -93 -130.5 -142.5t-189.5 -49.5q-157 0 -262 110.5t-105 267.5q0 150 108 260t258 110q225 0 321 -199h-102q-83 114 -220 114q-114 0 -195.5 -85.5t-81.5 -199.5q0 -118 78 -205q82 -90 198 -90q140 0 218 109h105z" />
    <glyph glyph-name="D" unicode="D" horiz-adv-x="685" 
d="M66 0v720h219q167 0 267.5 -96.5t100.5 -263.5q0 -173 -105 -268q-101 -92 -276 -92h-206zM150 641v-563h131q135 0 210 73.5t75 208.5t-81 209q-77 72 -214 72h-121z" />
    <glyph glyph-name="E" unicode="E" horiz-adv-x="496" 
d="M439 0h-373v720h373v-77h-288v-238h270v-77h-270v-249h288v-79z" />
    <glyph glyph-name="F" unicode="F" horiz-adv-x="465" 
d="M420 720v-77h-270v-240h248v-76h-247v-327h-85v720h354z" />
    <glyph glyph-name="G" unicode="G" horiz-adv-x="796" 
d="M405 734q223 0 319 -194h-107q-75 110 -218 110q-115 0 -197 -85t-82 -201q0 -125 78 -210t201 -85q100 0 169.5 54t96.5 151h-319v79h420q-12 -163 -108 -263q-100 -104 -261 -104q-160 0 -262.5 108t-102.5 269q0 156 108.5 263.5t264.5 107.5z" />
    <glyph glyph-name="H" unicode="H" horiz-adv-x="626" 
d="M560 0h-85v327h-324v-327h-85v720h85v-313h324v313h85v-720z" />
    <glyph glyph-name="I" unicode="I" horiz-adv-x="221" 
d="M153 0h-85v720h85v-720z" />
    <glyph glyph-name="J" unicode="J" horiz-adv-x="417" 
d="M0 172h82q0 -42 22 -74q24 -35 65 -35q94 0 94 109v548h85v-554q0 -83 -48.5 -132t-131.5 -49q-78 0 -124 56q-44 52 -44 131z" />
    <glyph glyph-name="K" unicode="K" horiz-adv-x="559" 
d="M560 720l-309 -352l313 -368h-108l-304 364v-364h-85v720h84v-355l302 355h107z" />
    <glyph glyph-name="L" unicode="L" horiz-adv-x="422" 
d="M399 0h-332v720h85v-640h247v-80z" />
    <glyph glyph-name="M" unicode="M" horiz-adv-x="847" 
d="M698 0v565q0 7 3 27q2 13 2 40h-3l-244 -632h-65l-244 632h-3q0 -11 2.5 -32.5t2.5 -32.5v-567h-83v720h129l229 -595l228 595h129v-720h-83z" />
    <glyph glyph-name="N" unicode="N" horiz-adv-x="683" 
d="M617 0h-92l-379 599q0 -9 1.5 -29t1.5 -30v-540h-83v720h95l376 -591q0 12 -1.5 37t-1.5 37v517h83v-720z" />
    <glyph glyph-name="O" unicode="O" horiz-adv-x="802" 
d="M771 365q0 -158 -107 -269t-264 -111q-156 0 -262.5 111.5t-106.5 267.5q0 151 109.5 260.5t260.5 109.5q153 0 261.5 -108t108.5 -261zM682 366q0 116 -83 201t-199 85q-114 0 -197 -87t-83 -201q0 -121 80 -207q82 -89 202 -89q122 0 202 89q78 86 78 209z" />
    <glyph glyph-name="P" unicode="P" horiz-adv-x="522" 
d="M497 512q0 -106 -72 -162q-65 -51 -174 -51h-99v-299h-85v720h185q245 0 245 -208zM408 507h1q0 136 -162 136h-95v-267h91q165 0 165 131z" />
    <glyph glyph-name="Q" unicode="Q" horiz-adv-x="801" 
d="M779 -10q-192 17 -229 33q-5 -4 -21 -10q-66 -27 -130 -27q-156 0 -262 111t-106 267q0 151 108.5 260.5t259.5 109.5q155 0 262.5 -109t107.5 -264q0 -169 -124 -275q38 -10 134 -10v-86zM681 366h1q0 116 -83 201t-199 85q-114 0 -197.5 -87t-83.5 -201q0 -120 82 -208
t201 -88q122 0 202 89q77 86 77 209z" />
    <glyph glyph-name="R" unicode="R" horiz-adv-x="544" 
d="M513 0h-105l-256 351v-351h-85v720h189q254 0 254 -219q0 -93 -62.5 -148.5t-157.5 -55.5zM152 642v-285h84q88 0 133 27q57 34 57 116q0 81 -53 115q-43 27 -128 27h-93z" />
    <glyph glyph-name="S" unicode="S" horiz-adv-x="480" 
d="M448 212q0 -97 -58 -161q-61 -66 -157 -66q-91 0 -149 66q-56 63 -56 155h82q0 -57 32 -98q34 -44 90 -44q60 0 96 42q34 39 34 100q0 75 -81 119q-75 35 -151 70q-81 50 -81 140q0 92 51.5 146t143.5 54q85 0 134 -54q46 -50 51 -137h-80q-3 49 -31 80.5t-75 31.5
q-49 0 -80 -32t-31 -81q0 -23 13 -43q27 -41 111 -78q101 -44 130 -68q62 -51 62 -142z" />
    <glyph glyph-name="T" unicode="T" horiz-adv-x="395" 
d="M385 642h-145v-642h-86v641h-144v79h375v-78z" />
    <glyph glyph-name="U" unicode="U" horiz-adv-x="584" 
d="M521 234q0 -116 -54 -180q-58 -69 -172 -69q-116 0 -176 67q-57 63 -57 181v487h85v-483q0 -173 146 -173q143 0 143 172v484h85v-486z" />
    <glyph glyph-name="V" unicode="V" horiz-adv-x="586" 
d="M508 720h90l-267 -720h-76l-267 720h90l216 -603z" />
    <glyph glyph-name="W" unicode="W" horiz-adv-x="879" 
d="M879 720l-216 -720h-76l1 4l-148 562h-1l-147 -566h-76l1 3l-217 717h87l165 -585h1l157 585h59l157 -585h1l165 585h87z" />
    <glyph glyph-name="X" unicode="X" horiz-adv-x="585" 
d="M586 0h-103l-190 296l-193 -296h-102l245 363l-239 357h103l186 -291l184 291h104l-240 -356z" />
    <glyph glyph-name="Y" unicode="Y" horiz-adv-x="513" 
d="M428 720h97l-226 -434v-286h-85v286l-226 434h97l171 -348z" />
    <glyph glyph-name="Z" unicode="Z" horiz-adv-x="472" 
d="M452 0h-433v84l328 553h-311v83h409v-78l-333 -559h340v-83z" />
    <glyph glyph-name="bracketleft" unicode="[" horiz-adv-x="273" 
d="M240 -205h-176v926h176v-68h-96v-790h96v-68z" />
    <glyph glyph-name="backslash" unicode="\" horiz-adv-x="281" 
d="M307 -94h-65l-242 821h64z" />
    <glyph glyph-name="bracketright" unicode="]" horiz-adv-x="273" 
d="M210 -205h-176v68h95v790h-95v68h176v-926z" />
    <glyph glyph-name="asciicircum" unicode="^" horiz-adv-x="500" 
d="M454 491h-64l-140 172l-140 -173h-65l173 230h63z" />
    <glyph glyph-name="underscore" unicode="_" horiz-adv-x="500" 
d="M504 -237h-508v59h508v-59z" />
    <glyph glyph-name="grave" unicode="`" horiz-adv-x="491" 
d="M312 598h-52l-132 166h82z" />
    <glyph glyph-name="a" unicode="a" 
d="M556 0h-75v76q-74 -88 -188 -88t-190 77.5t-76 191.5q0 113 76 191t189 78q117 0 187 -93v80h77v-513zM296 453q-79 0 -133.5 -58.5t-54.5 -138.5t54 -138t134 -58q76 0 130.5 59.5t54.5 136.5q0 78 -53.5 137.5t-131.5 59.5z" />
    <glyph glyph-name="b" unicode="b" 
d="M581 258q0 -116 -76 -193t-192 -77q-107 0 -185 89v-77h-75v770h76v-337q77 92 193 92q112 0 185.5 -77.5t73.5 -189.5zM501 258h1q0 81 -54.5 137.5t-134.5 56.5q-78 0 -131.5 -60t-53.5 -139q0 -74 55 -133.5t128 -59.5q81 0 135.5 58t54.5 140z" />
    <glyph glyph-name="c" unicode="c" horiz-adv-x="554" 
d="M532 168q-28 -84 -92.5 -132.5t-152.5 -48.5q-112 0 -186.5 78.5t-74.5 190.5q0 113 75.5 191.5t187.5 78.5q87 0 149.5 -45.5t91.5 -128.5h-82q-44 100 -163 100q-82 0 -130.5 -55.5t-48.5 -139.5q0 -82 49 -138q51 -59 132 -59q56 0 99.5 28.5t63.5 79.5h82z" />
    <glyph glyph-name="d" unicode="d" 
d="M555 0h-75v74q-73 -86 -187 -86t-190 77.5t-76 191.5q0 112 75 190t187 78q117 0 189 -87v332h77v-770zM482 253q0 82 -53 140.5t-134 58.5q-79 0 -133.5 -57t-54.5 -136q0 -81 54.5 -140t134.5 -59q77 0 131.5 58t54.5 135z" />
    <glyph glyph-name="e" unicode="e" horiz-adv-x="584" 
d="M555 231h-446q6 -83 55.5 -126.5t132.5 -43.5q118 0 165 87h87q-87 -161 -251 -161q-119 0 -194.5 75.5t-75.5 195.5q0 114 76.5 191.5t190.5 77.5q128 0 197 -86q63 -79 63 -210zM111 299h366q-15 81 -59 117t-126 36q-71 0 -119 -41.5t-62 -111.5z" />
    <glyph glyph-name="f" unicode="f" horiz-adv-x="213" 
d="M140 0h-75v441h-65v72h65v109q0 80 36 117t97 37q13 0 37 -6v-74q-21 6 -32 6q-40 0 -54 -31q-9 -21 -9 -68v-90h79v-72h-79v-441z" />
    <glyph glyph-name="g" unicode="g" 
d="M479 513h77v-450q0 -298 -260 -298q-91 0 -154 41q-68 45 -86 130h89q13 -49 56 -75q39 -23 92 -23q110 0 153 73q33 56 33 175q-74 -91 -186 -91q-116 0 -191 76.5t-75 193.5q0 110 76.5 185.5t187.5 75.5q109 0 188 -87v74zM108 266q0 -88 51 -143.5t138 -55.5
q80 0 134 62q52 59 52 140q0 74 -56.5 129t-130.5 55q-79 0 -133.5 -54t-54.5 -133z" />
    <glyph glyph-name="h" unicode="h" horiz-adv-x="535" 
d="M483 0h-76v298q0 152 -125 152q-64 0 -107.5 -47.5t-43.5 -161.5v-241h-77v770h76v-334q57 87 162 87q94 0 144 -59q47 -55 47 -151v-313z" />
    <glyph glyph-name="i" unicode="i" horiz-adv-x="187" 
d="M131 594h-76v90h76v-90zM131 0h-76v513h76v-513z" />
    <glyph glyph-name="j" unicode="j" horiz-adv-x="189" 
d="M133 594h-76v90h76v-90zM-37 -235v71q52 0 73 18t21 68v591h76v-594q0 -83 -42.5 -118.5t-127.5 -35.5z" />
    <glyph glyph-name="k" unicode="k" horiz-adv-x="445" 
d="M450 0h-96l-224 268v-268h-76v770h75v-495l203 238h94l-213 -240z" />
    <glyph glyph-name="l" unicode="l" horiz-adv-x="186" 
d="M130 0h-76v770h76v-770z" />
    <glyph glyph-name="m" unicode="m" horiz-adv-x="834" 
d="M781 0h-75v315q0 59 -28 96q-31 42 -88 42q-62 0 -100 -53q-33 -48 -33 -113v-287h-75v289q0 77 -21 114q-27 50 -98 50q-62 0 -100 -57q-33 -49 -33 -115v-281h-75v513h70v-74q58 84 149 84q60 0 96 -21t61 -73q54 94 168 94q90 0 136 -54.5t46 -145.5v-323z" />
    <glyph glyph-name="n" unicode="n" horiz-adv-x="541" 
d="M489 0h-76v302q0 149 -129 149q-79 0 -120 -68q-33 -56 -33 -141v-242h-77v513h73v-77q62 87 164 87q96 0 147 -56.5t51 -153.5v-313z" />
    <glyph glyph-name="o" unicode="o" horiz-adv-x="583" 
d="M289 528q111 0 189.5 -78.5t78.5 -189.5q0 -112 -76.5 -192.5t-188.5 -80.5q-111 0 -188.5 79t-77.5 190q0 110 76.5 191t186.5 81zM479 256q0 85 -51.5 140.5t-136.5 55.5q-84 0 -135 -55t-51 -140q0 -83 52 -139t134 -56q84 0 136 55t52 139z" />
    <glyph glyph-name="p" unicode="p" 
d="M582 256q0 -113 -76.5 -191t-189.5 -78q-110 0 -187 89v-299h-76v737h76v-81q79 92 190 92q113 0 188 -78t75 -191zM502 257q0 82 -53.5 139t-135.5 57q-77 0 -132 -59.5t-55 -137.5q0 -75 55.5 -135.5t130.5 -60.5q80 0 135 58t55 139z" />
    <glyph glyph-name="q" unicode="q" 
d="M557 -223h-77v299q-77 -89 -186 -89q-112 0 -189.5 78.5t-77.5 190.5q0 113 76 191t188 78q109 0 188 -92v81h78v-737zM297 453q-79 0 -134 -58t-55 -138q0 -78 55.5 -137.5t132.5 -59.5t132 59.5t55 136.5q0 78 -54.5 137.5t-131.5 59.5z" />
    <glyph glyph-name="r" unicode="r" horiz-adv-x="291" 
d="M279 513v-71q-18 5 -39 5q-106 0 -106 -140v-307h-77v513h74v-54q47 60 117 60q21 0 31 -6z" />
    <glyph glyph-name="s" unicode="s" horiz-adv-x="379" 
d="M24 162h76q0 -41 24 -72t64 -31q39 0 64.5 20t25.5 58q0 54 -60 83q-55 24 -111 49q-60 37 -60 112q0 61 43.5 104.5t105.5 43.5q66 0 103 -39t37 -106h-78q0 71 -66 71q-30 0 -50 -20t-20 -50q0 -29 21.5 -46t79 -43.5t81.5 -45.5q39 -31 47 -74q2 -14 2 -33
q0 -70 -48 -113t-118 -43q-75 0 -119 49.5t-44 125.5z" />
    <glyph glyph-name="t" unicode="t" horiz-adv-x="236" 
d="M237 441h-81v-441h-75v441h-73v71h73v143h75v-142h81v-72z" />
    <glyph glyph-name="u" unicode="u" horiz-adv-x="536" 
d="M480 0h-73v72q-65 -84 -162 -84q-195 0 -195 226v299h76v-283q0 -169 125 -169q152 0 152 203v249h77v-513z" />
    <glyph glyph-name="v" unicode="v" horiz-adv-x="464" 
d="M232 113l150 400h82l-201 -513h-62l-201 513h82z" />
    <glyph glyph-name="w" unicode="w" horiz-adv-x="677" 
d="M674 513l-175 -513h-47l-114 378l-112 -378h-47l-176 513h83l115 -372l112 372h52l110 -372l116 372h83z" />
    <glyph glyph-name="x" unicode="x" horiz-adv-x="433" 
d="M430 0h-87l-127 206l-130 -206h-87l172 266l-156 247h87l115 -187l117 187h89l-161 -245z" />
    <glyph glyph-name="y" unicode="y" horiz-adv-x="484" 
d="M490 514l-290 -737h-81l92 233l-207 504h83l163 -402l3 2l154 400h83z" />
    <glyph glyph-name="z" unicode="z" horiz-adv-x="387" 
d="M366 0h-354v66l259 376h-229v71h310v-77l-251 -363h265v-73z" />
    <glyph glyph-name="braceleft" unicode="{" horiz-adv-x="500" 
d="M422 -146v-63h-30q-105 0 -141 42q-33 38 -33 145v121q0 77 -26.5 104.5t-101.5 27.5v62q80 0 104.5 29.5t24.5 122.5q0 15 -1 46v46q0 114 34 153q19 22 52.5 32t117.5 10v-63q-60 0 -78 -5q-33 -10 -44 -46q-6 -21 -6 -68v-120q0 -68 -17.5 -107.5t-70.5 -61.5
q54 -22 71 -61.5t17 -129.5v-42v-41q0 -83 18 -107q15 -20 51 -24q12 -2 59 -2z" />
    <glyph glyph-name="bar" unicode="|" horiz-adv-x="503" 
d="M282 -224h-61v976h61v-976z" />
    <glyph glyph-name="braceright" unicode="}" horiz-adv-x="500" 
d="M78 -146q62 0 81 6q32 10 42 46q5 19 5 66v120q0 69 17 108t71 61q-53 22 -70.5 62t-17.5 129v45q1 30 1 43q0 83 -19 105q-16 18 -52 23q-11 1 -58 1v63h30q105 0 141 -42q33 -38 33 -145v-119q0 -75 24 -104t104 -29v-62q-75 0 -101.5 -27.5t-26.5 -104.5v-121
q0 -72 -12 -107q-19 -53 -74 -70q-33 -10 -118 -10v63z" />
    <glyph glyph-name="asciitilde" unicode="~" horiz-adv-x="705" 
d="M647 312q-91 -78 -169 -78q-45 0 -126 38.5t-126 38.5q-66 0 -168 -87v70q95 81 167 81q48 0 129 -39t124 -39q68 0 169 87v-72z" />
    <glyph glyph-name="currency" unicode="&#xa4;" horiz-adv-x="589" 
d="M553 204l-35 -35l-98 100q-57 -44 -124 -44q-68 0 -125 44l-99 -100l-35 35l100 99q-43 56 -43 123q0 66 43 124l-100 99l34 34l99 -99q60 43 124 43q70 0 125 -43l99 99l35 -33l-100 -100q42 -56 42 -124q0 -69 -42 -123zM447 428l1 -1q0 63 -44.5 107.5t-107.5 44.5
q-62 0 -108 -44.5t-46 -106.5q0 -64 45 -109t109 -45q62 0 106.5 46t44.5 108z" />
    <glyph glyph-name="brokenbar" unicode="&#xa6;" horiz-adv-x="503" 
d="M283 333h-62v382h62v-382zM283 -177h-62v382h62v-382z" />
    <glyph glyph-name="section" unicode="&#xa7;" horiz-adv-x="502" 
d="M455 304q0 -92 -94 -138q50 -44 50 -109q0 -69 -50 -110q-46 -38 -116 -38q-75 0 -121 39.5t-46 113.5v14h79v-27q0 -36 29 -56q25 -18 63 -18q89 0 89 78q0 36 -43 72q-9 7 -73 48q-73 46 -96 64q-64 48 -74 80q-6 19 -6 40q0 88 94 144q-50 38 -50 100q0 66 47 108
q45 39 112 39q78 0 120 -42t42 -120h-72q0 98 -92 98q-35 0 -57.5 -20.5t-22.5 -55.5q0 -39 30 -63q25 -20 152 -91q53 -29 76 -59q30 -38 30 -91zM376 294q0 37 -26 63q-15 16 -57 41l-108 64q-63 -30 -63 -83q0 -33 26 -60q15 -16 54 -40l115 -71q59 36 59 86z" />
    <glyph glyph-name="copyright" unicode="&#xa9;" horiz-adv-x="839" 
d="M418 718q151 0 257 -105t106 -256q0 -147 -107.5 -254.5t-254.5 -107.5q-148 0 -254.5 106.5t-106.5 254.5q0 146 107.5 254t252.5 108zM99 357q0 -130 95 -225t225 -95q125 0 222.5 97t97.5 222q0 134 -93 227t-227 93q-130 0 -225 -94.5t-95 -224.5zM591 276
q-6 -66 -55.5 -103.5t-117.5 -37.5q-93 0 -144 67q-45 60 -45 156q0 95 48 155q53 65 145 65q65 0 109 -32q49 -35 56 -97h-63q-16 81 -105 81q-65 0 -96 -58q-24 -45 -24 -116q0 -68 26 -114q33 -56 96 -56q43 0 72 24t36 66h62z" />
    <glyph glyph-name="guillemotleft" unicode="&#xab;" horiz-adv-x="482" 
d="M411 115h-68l-122 155l121 155h69l-120 -155zM248 115h-67l-121 155l121 155h68l-121 -155z" />
    <glyph glyph-name="logicalnot" unicode="&#xac;" horiz-adv-x="839" 
d="M714 176h-56v188h-533v58h589v-246z" />
    <glyph glyph-name="registered" unicode="&#xae;" horiz-adv-x="839" 
d="M418 718q151 0 257 -105t106 -256q0 -140 -111 -251t-251 -111q-147 0 -254 107t-107 254q0 145 108 253.5t252 108.5zM739 354q0 136 -92 229t-228 93q-131 0 -225.5 -94t-94.5 -225q0 -129 94.5 -224.5t223.5 -95.5q132 0 227 92.5t95 224.5zM345 157h-69v412h153
q171 0 171 -113q0 -45 -31.5 -79t-76.5 -41l104 -179h-77l-106 179h-68v-179zM530 449q0 75 -109 75h-76v-144h77q108 0 108 69z" />
    <glyph glyph-name="degree" unicode="&#xb0;" horiz-adv-x="330" 
d="M166 714q57 0 97.5 -40.5t40.5 -97.5t-41 -98.5t-98 -41.5t-98 41t-41 98t41.5 98t98.5 41zM265 575q0 42 -28.5 71.5t-70.5 29.5t-71.5 -29t-29.5 -71q0 -41 29.5 -71t70.5 -30q43 0 71.5 28.5t28.5 71.5z" />
    <glyph glyph-name="plusminus" unicode="&#xb1;" horiz-adv-x="839" 
d="M714 354h-266v-170h-57v169h-266v57h266v170h57v-169h266v-57zM714 19h-589v58h589v-58z" />
    <glyph glyph-name="mu" unicode="&#xb5;" horiz-adv-x="556" 
d="M528 526l-78 -370q-13 -62 -13 -65q0 -35 39 -35q4 0 27 2l-16 -58q-33 -9 -57 -9q-61 0 -70 75q-44 -75 -141 -75q-84 0 -130 69l-56 -271h-77l156 737h77l-62 -293q-8 -38 -8 -68q0 -112 106 -112q124 0 168 204l58 269h77z" />
    <glyph glyph-name="mu" unicode="&#x3bc;" horiz-adv-x="556" 
d="M528 526l-78 -370q-13 -62 -13 -65q0 -35 39 -35q4 0 27 2l-16 -58q-33 -9 -57 -9q-61 0 -70 75q-44 -75 -141 -75q-84 0 -130 69l-56 -271h-77l156 737h77l-62 -293q-8 -38 -8 -68q0 -112 106 -112q124 0 168 204l58 269h77z" />
    <glyph glyph-name="paragraph" unicode="&#xb6;" horiz-adv-x="502" 
d="M466 690h-61v-690h-45v690h-92v-690h-46v385q-80 4 -130 47q-55 46 -55 124q0 81 57 128q52 43 135 43h237v-37z" />
    <glyph glyph-name="periodcentered" unicode="&#xb7;" horiz-adv-x="283" 
d="M97 314v88h88v-88h-88z" />
    <glyph glyph-name="periodcentered" unicode="&#x2219;" horiz-adv-x="283" 
d="M97 314v88h88v-88h-88z" />
    <glyph glyph-name="guillemotright" unicode="&#xbb;" horiz-adv-x="482" 
d="M301 425l122 -154l-122 -156h-67l120 154l-120 156h67zM139 425l122 -154l-121 -156h-69l121 154l-121 156h68z" />
    <glyph glyph-name="afii10023" unicode="&#x401;" horiz-adv-x="496" 
d="M383 787h-80v91h80v-91zM208 787h-80v91h80v-91zM439 0h-373v720h373v-78h-288v-237h270v-77h-270v-249h288v-79z" />
    <glyph glyph-name="afii10017" unicode="&#x410;" horiz-adv-x="605" 
d="M622 0h-90l-85 222h-290l-84 -222h-91l281 720h78zM417 301l-113 299l-3 -2l-115 -297h231z" />
    <glyph glyph-name="afii10018" unicode="&#x411;" horiz-adv-x="532" 
d="M500 215q0 -109 -74 -165q-66 -50 -178 -50h-182v720h389v-78h-304v-212h96q114 0 179 -49q74 -56 74 -166zM412 215q0 137 -164 137h-97v-274h96q165 0 165 137z" />
    <glyph glyph-name="afii10019" unicode="&#x412;" horiz-adv-x="523" 
d="M489 215q0 -215 -259 -215h-163v720h144q237 0 237 -192q0 -102 -90 -141q131 -40 131 -172zM362 530q0 112 -147 112h-65v-232h61q151 0 151 120zM402 204q0 76 -43 108q-37 27 -116 27h-93v-261h86q166 0 166 126z" />
    <glyph glyph-name="afii10020" unicode="&#x413;" horiz-adv-x="437" 
d="M422 642h-273v-642h-85v720h358v-78z" />
    <glyph glyph-name="afii10021" unicode="&#x414;" horiz-adv-x="640" 
d="M638 -134h-81v134h-474v-134h-82v213h49l230 641h79l230 -641h49v-213zM504 79l-183 526l-3 -2l-184 -524h370z" />
    <glyph glyph-name="afii10022" unicode="&#x415;" horiz-adv-x="496" 
d="M439 0h-373v720h373v-77h-288v-238h270v-77h-270v-249h288v-79z" />
    <glyph glyph-name="afii10024" unicode="&#x416;" horiz-adv-x="864" 
d="M390 0v365l-288 -365h-109l301 369l-296 351h107l285 -351v351h84v-351l285 351h107l-296 -351l301 -369h-109l-288 365v-365h-84z" />
    <glyph glyph-name="afii10025" unicode="&#x417;" horiz-adv-x="528" 
d="M490 198q0 -92 -66.5 -152t-159.5 -60q-95 0 -163 61.5t-68 155.5h92q0 -61 37.5 -98t98.5 -37q63 0 102 34t39 96q0 67 -40.5 103.5t-108.5 36.5h-66v75h66q59 0 95.5 32t36.5 90q0 51 -32.5 84t-83.5 33q-55 0 -89.5 -32t-34.5 -86h-91q0 83 60.5 141t144.5 58
q89 0 151 -54t62 -142q0 -49 -25.5 -94t-68.5 -64q112 -48 112 -181z" />
    <glyph glyph-name="afii10026" unicode="&#x418;" horiz-adv-x="684" 
d="M618 0h-86v581l-382 -581h-84v720h85v-581l382 581h85v-720z" />
    <glyph glyph-name="afii10027" unicode="&#x419;" horiz-adv-x="684" 
d="M494 905q0 -61 -44 -101t-106 -40q-61 0 -105 40t-44 101h68q0 -36 22.5 -59.5t58.5 -23.5q37 0 58.5 23t21.5 60h70zM618 0h-86v581l-382 -581h-84v720h85v-582l382 582h85v-720z" />
    <glyph glyph-name="afii10028" unicode="&#x41a;" horiz-adv-x="559" 
d="M561 720l-312 -351l316 -369h-108l-305 365v-365h-85v720h85v-351l302 351h107z" />
    <glyph glyph-name="afii10029" unicode="&#x41b;" horiz-adv-x="584" 
d="M597 0h-90l-214 600l-3 -2l-212 -598h-91l265 720h79z" />
    <glyph glyph-name="afii10030" unicode="&#x41c;" horiz-adv-x="847" 
d="M698 0v565q0 7 3 27q2 13 2 40h-3l-244 -632h-65l-244 632h-3q0 -11 2.5 -32.5t2.5 -32.5v-567h-83v720h129l229 -595l228 595h129v-720h-83z" />
    <glyph glyph-name="afii10031" unicode="&#x41d;" horiz-adv-x="626" 
d="M560 0h-85v327h-324v-327h-85v720h85v-313h324v313h85v-720z" />
    <glyph glyph-name="afii10032" unicode="&#x41e;" horiz-adv-x="802" 
d="M771 365q0 -158 -107 -269t-264 -111q-156 0 -262.5 111.5t-106.5 267.5q0 151 109.5 260.5t260.5 109.5q153 0 261.5 -108t108.5 -261zM682 366q0 116 -83 201t-199 85q-114 0 -197 -87t-83 -201q0 -121 80 -207q82 -89 202 -89q122 0 202 89q78 86 78 209z" />
    <glyph glyph-name="afii10033" unicode="&#x41f;" horiz-adv-x="617" 
d="M550 0h-84v638h-315v-638h-85v720h484v-720z" />
    <glyph glyph-name="afii10034" unicode="&#x420;" horiz-adv-x="522" 
d="M497 512q0 -106 -72 -162q-65 -51 -174 -51h-99v-299h-85v720h185q110 0 174 -48q71 -53 71 -160zM408 507h1q0 136 -162 136h-96v-267h92q165 0 165 131z" />
    <glyph glyph-name="afii10035" unicode="&#x421;" horiz-adv-x="751" 
d="M719 178q-47 -93 -130.5 -142.5t-189.5 -49.5q-157 0 -262 110.5t-105 267.5q0 150 108 260t258 110q225 0 321 -199h-102q-83 114 -220 114q-114 0 -195.5 -85.5t-81.5 -199.5q0 -118 78 -205q82 -90 198 -90q140 0 218 109h105z" />
    <glyph glyph-name="afii10036" unicode="&#x422;" horiz-adv-x="410" 
d="M398 642h-150v-642h-86v641h-150v79h386v-78z" />
    <glyph glyph-name="afii10037" unicode="&#x423;" horiz-adv-x="602" 
d="M612 720l-318 -720h-88l58 126l-271 594h90l224 -496l215 496h90z" />
    <glyph glyph-name="afii10038" unicode="&#x424;" horiz-adv-x="759" 
d="M732 378q0 -180 -162 -228q-50 -15 -149 -15v-135h-84v136q-99 0 -149 15q-161 48 -161 227q0 182 171 224q49 12 139 12v106h83v-106q92 0 141 -12q171 -42 171 -224zM644 373h1q0 164 -190 164h-37v-325h38q188 0 188 161zM340 212v325h-36q-190 0 -190 -164
q0 -161 188 -161h38z" />
    <glyph glyph-name="afii10039" unicode="&#x425;" horiz-adv-x="585" 
d="M586 0h-103l-190 296l-193 -296h-102l245 363l-239 357h103l186 -291l184 291h104l-240 -356z" />
    <glyph glyph-name="afii10040" unicode="&#x426;" horiz-adv-x="615" 
d="M607 -134h-80v134h-459v720h85v-641h304v641h84v-641h66v-213z" />
    <glyph glyph-name="afii10041" unicode="&#x427;" horiz-adv-x="532" 
d="M464 0h-85v328q-86 -31 -161 -31q-87 0 -133 50t-46 138v235h83v-228q0 -117 109 -117q73 0 147 35v310h86v-720z" />
    <glyph glyph-name="afii10042" unicode="&#x428;" horiz-adv-x="881" 
d="M815 0h-749v720h84v-642h248v642h84v-642h248v642h85v-720z" />
    <glyph glyph-name="afii10043" unicode="&#x429;" horiz-adv-x="890" 
d="M883 -134h-80v134h-735v720h85v-641h248v641h84v-641h247v641h85v-641h66v-213z" />
    <glyph glyph-name="afii10044" unicode="&#x42a;" horiz-adv-x="583" 
d="M131 0v641h-119v79h204v-292h85q114 0 179 -50q73 -55 73 -165t-73 -164q-66 -49 -179 -49h-170zM216 349v-271h85q164 0 164 135q0 136 -164 136h-85z" />
    <glyph glyph-name="afii10045" unicode="&#x42b;" horiz-adv-x="695" 
d="M628 0h-85v720h85v-720zM67 0v720h85v-292h80q114 0 179 -49q74 -56 74 -166q0 -108 -74 -164q-66 -49 -178 -49h-166zM152 349v-271h80q165 0 165 135q0 136 -164 136h-81z" />
    <glyph glyph-name="afii10046" unicode="&#x42c;" horiz-adv-x="519" 
d="M490 213q0 -108 -74 -164q-66 -49 -178 -49h-171v720h85v-292h85q114 0 179 -49q74 -56 74 -166zM152 349v-271h85q165 0 165 135q0 136 -164 136h-86z" />
    <glyph glyph-name="afii10047" unicode="&#x42d;" horiz-adv-x="737" 
d="M705 365q0 -161 -98 -269q-102 -111 -261 -111q-104 0 -186 50t-128 143h102q67 -110 214 -110q109 0 182 77q69 71 84 182h-351v80h350q-17 106 -87 173q-73 71 -178 71q-137 0 -216 -116h-100q93 199 314 199q153 0 256 -107.5t103 -261.5z" />
    <glyph glyph-name="afii10048" unicode="&#x42e;" horiz-adv-x="977" 
d="M945 365q0 -157 -100 -267q-103 -113 -259 -113q-140 0 -241 101q-97 97 -111 238h-83v-324h-85v720h85v-314h82q14 134 117 231.5t237 97.5q153 0 255.5 -108t102.5 -262zM856 366h1q0 116 -78 201t-193 85q-111 0 -190 -88t-79 -200q0 -118 76 -205q78 -91 195 -91
q120 0 196 91q72 85 72 207z" />
    <glyph glyph-name="afii10049" unicode="&#x42f;" horiz-adv-x="547" 
d="M480 0h-85v357l-259 -357h-105l224 297q-93 0 -154 55q-64 57 -64 149q0 107 74 166q67 53 177 53h192v-720zM395 358v284h-96q-177 0 -177 -142t190 -142h83z" />
    <glyph glyph-name="afii10065" unicode="&#x430;" 
d="M556 0h-75v76q-74 -88 -188 -88t-190 77.5t-76 191.5q0 113 76 191t189 78q117 0 187 -93v80h77v-513zM296 453q-79 0 -133.5 -58.5t-54.5 -138.5t54 -138t134 -58q76 0 130.5 59.5t54.5 136.5q0 78 -53.5 137.5t-131.5 59.5z" />
    <glyph glyph-name="afii10066" unicode="&#x431;" horiz-adv-x="580" 
d="M552 255q0 -115 -71.5 -191.5t-186.5 -76.5t-186 75t-71 190v141q0 377 296 377h190v-71h-190q-65 0 -106 -22q-114 -61 -114 -260q28 43 86 70q54 25 109 25q113 0 180 -73q64 -70 64 -184zM294 59q85 0 133 52.5t48 138.5q0 82 -44 134q-47 56 -128 56t-135.5 -54.5
t-54.5 -135.5q0 -87 47.5 -139t133.5 -52z" />
    <glyph glyph-name="afii10067" unicode="&#x432;" horiz-adv-x="456" 
d="M428 145q0 -71 -52 -110q-46 -35 -120 -35h-202v513h194q68 0 109 -35q45 -38 45 -104q0 -71 -64 -103v-2q90 -36 90 -124zM128 445v-150h106q49 0 71 15q26 18 26 64q0 36 -29 55q-24 16 -62 16h-112zM128 231v-163h120q101 0 101 80q0 83 -104 83h-117z" />
    <glyph glyph-name="afii10068" unicode="&#x433;" horiz-adv-x="334" 
d="M323 441h-192v-441h-77v513h269v-72z" />
    <glyph glyph-name="afii10069" unicode="&#x434;" horiz-adv-x="495" 
d="M492 -108h-72v108h-345v-108h-72v178h46l161 443h74l162 -443h46v-178zM366 70l-117 335l-3 -2l-117 -333h237z" />
    <glyph glyph-name="afii10070" unicode="&#x435;" horiz-adv-x="584" 
d="M555 231h-446q6 -80 55 -125t129 -45q122 0 168 87h87q-84 -161 -254 -161q-116 0 -191 77t-75 194q0 114 76.5 191.5t190.5 77.5q123 0 194 -88q66 -82 66 -208zM111 299h363q-17 153 -182 153q-71 0 -119 -41.5t-62 -111.5z" />
    <glyph glyph-name="afii10072" unicode="&#x436;" horiz-adv-x="687" 
d="M2 513h93l211 -244v244h75v-244l211 244h93l-218 -244l225 -269h-98l-213 264v-264h-75v264l-213 -264h-98l225 269z" />
    <glyph glyph-name="afii10073" unicode="&#x437;" horiz-adv-x="454" 
d="M26 155h81q0 -47 35 -73q31 -24 80 -24q48 0 81 18q41 22 41 66q0 65 -56 82q-26 8 -110 8v66q67 0 98 10q54 18 54 71q0 39 -32 60q-27 18 -68 18q-45 0 -75 -17q-35 -22 -35 -64h-79q0 76 60 117q51 35 131 35q74 0 123 -37q53 -40 53 -112q0 -77 -88 -107
q103 -35 103 -131q0 -72 -66 -116q-57 -38 -133 -38q-82 0 -137 42q-61 46 -61 126z" />
    <glyph glyph-name="afii10074" unicode="&#x438;" horiz-adv-x="542" 
d="M489 0h-77v401l-279 -401h-80v513h77v-401l280 401h79v-513z" />
    <glyph glyph-name="afii10075" unicode="&#x439;" horiz-adv-x="542" 
d="M409 690q-6 -58 -43 -91.5t-95 -33.5q-56 0 -93.5 34.5t-43.5 90.5h66q0 -29 21 -48t50 -19t50.5 19.5t21.5 47.5h66zM489 0h-77v401l-279 -401h-79v513h76v-401l280 401h79v-513z" />
    <glyph glyph-name="afii10076" unicode="&#x43a;" horiz-adv-x="450" 
d="M450 513l-234 -244l243 -269h-99l-230 264v-264h-76v513h76v-244l224 244h96z" />
    <glyph glyph-name="afii10077" unicode="&#x43b;" horiz-adv-x="456" 
d="M459 0h-83l-147 395l-3 -2l-145 -393h-84l198 513h66z" />
    <glyph glyph-name="afii10078" unicode="&#x43c;" horiz-adv-x="665" 
d="M611 0h-74v359q0 8 1 24.5t1 24.5l-174 -408h-64l-175 408q0 -8 1 -24.5t1 -24.5v-359h-74v513h106l172 -424l173 424h106v-513z" />
    <glyph glyph-name="afii10079" unicode="&#x43d;" horiz-adv-x="520" 
d="M466 0h-77v228h-259v-228h-77v513h77v-216h259v216h77v-513z" />
    <glyph glyph-name="afii10080" unicode="&#x43e;" horiz-adv-x="583" 
d="M289 528q111 0 189.5 -78.5t78.5 -189.5q0 -112 -76.5 -192.5t-188.5 -80.5q-111 0 -188.5 79t-77.5 190q0 110 76.5 191t186.5 81zM479 256q0 85 -51.5 140.5t-136.5 55.5q-84 0 -135 -55t-51 -140q0 -83 52 -139t134 -56q84 0 136 55t52 139z" />
    <glyph glyph-name="afii10081" unicode="&#x43f;" horiz-adv-x="511" 
d="M457 0h-76v442h-251v-442h-76v513h403v-513z" />
    <glyph glyph-name="afii10082" unicode="&#x440;" 
d="M582 256q0 -114 -76 -191.5t-190 -77.5q-110 0 -187 89v-299h-76v737h76v-81q79 92 190 92q113 0 188 -78t75 -191zM502 257q0 81 -54 138.5t-135 57.5q-77 0 -132 -59.5t-55 -137.5q0 -75 55.5 -135.5t130.5 -60.5q80 0 135 58t55 139z" />
    <glyph glyph-name="afii10083" unicode="&#x441;" horiz-adv-x="554" 
d="M532 168q-28 -84 -92.5 -132.5t-152.5 -48.5q-112 0 -186.5 78.5t-74.5 190.5q0 113 75.5 191.5t187.5 78.5q87 0 149.5 -45.5t91.5 -128.5h-82q-44 100 -163 100q-82 0 -130.5 -55.5t-48.5 -139.5q0 -82 49 -138q51 -59 132 -59q56 0 99.5 28.5t63.5 79.5h82z" />
    <glyph glyph-name="afii10084" unicode="&#x442;" horiz-adv-x="355" 
d="M7 513h341v-70h-132v-443h-77v443h-132v70z" />
    <glyph glyph-name="afii10085" unicode="&#x443;" horiz-adv-x="484" 
d="M490 514l-290 -737h-81l92 233l-207 504h83l163 -402l3 2l154 400h83z" />
    <glyph glyph-name="afii10086" unicode="&#x444;" horiz-adv-x="871" 
d="M844 257q0 -111 -62 -187q-67 -82 -176 -82q-74 0 -133 41v-252h-75v252q-59 -41 -133 -41q-107 0 -175 82q-63 77 -63 186q0 110 62 187q67 83 174 83q79 0 135 -44v289h74v-289q59 44 135 44q108 0 175 -82q62 -76 62 -187zM602 453q-85 0 -132 -61v-270
q46 -61 130 -61q77 0 124 61q43 56 43 135q0 82 -41 136q-45 60 -124 60zM400 121v270q-48 62 -131 62q-78 0 -124 -61q-41 -55 -41 -135q0 -79 43 -135q47 -61 124 -61q82 0 129 60z" />
    <glyph glyph-name="afii10087" unicode="&#x445;" horiz-adv-x="433" 
d="M430 0h-87l-127 206l-130 -206h-87l172 266l-156 247h87l115 -187l117 187h89l-161 -245z" />
    <glyph glyph-name="afii10088" unicode="&#x446;" horiz-adv-x="509" 
d="M507 -108h-73v108h-381v513h77v-443h246v443h76v-443h55v-178z" />
    <glyph glyph-name="afii10089" unicode="&#x447;" horiz-adv-x="461" 
d="M406 0h-76v219q-59 -21 -134 -21q-69 0 -114 39t-45 107v169h74v-155q0 -93 87 -93q75 0 132 24v224h76v-513z" />
    <glyph glyph-name="afii10090" unicode="&#x448;" horiz-adv-x="751" 
d="M696 0h-641v513h75v-443h207v443h76v-443h207v443h76v-513z" />
    <glyph glyph-name="afii10091" unicode="&#x449;" horiz-adv-x="755" 
d="M752 -108h-72v108h-625v513h76v-443h208v443h75v-443h207v443h77v-443h54v-178z" />
    <glyph glyph-name="afii10092" unicode="&#x44a;" horiz-adv-x="469" 
d="M95 0v442h-90v71h166v-207h97q74 0 124 -35t50 -118q0 -77 -51.5 -115t-123.5 -38h-172zM171 236v-166h91q103 0 103 83t-103 83h-91z" />
    <glyph glyph-name="afii10093" unicode="&#x44b;" horiz-adv-x="582" 
d="M527 0h-78v513h78v-513zM55 0v513h76v-206h102q75 0 117.5 -40t42.5 -114q0 -72 -47 -112.5t-120 -40.5h-171zM131 236v-165h88q98 0 98 82q0 83 -97 83h-89z" />
    <glyph glyph-name="afii10094" unicode="&#x44c;" horiz-adv-x="432" 
d="M54 0v513h76v-207h101q123 0 162 -85q13 -28 13 -68q0 -74 -52 -115q-48 -38 -123 -38h-177zM130 236v-165h95q104 0 104 82q0 83 -103 83h-96z" />
    <glyph glyph-name="afii10095" unicode="&#x44d;" horiz-adv-x="553" 
d="M527 256q0 -110 -75.5 -189.5t-185.5 -79.5q-86 0 -150 49t-93 132h82q21 -49 64 -78t97 -29q73 0 121.5 46t57.5 120h-223v69h222q-12 70 -59 113t-117 43q-114 0 -161 -100h-83q27 81 91 127.5t149 46.5q111 0 187 -79.5t76 -190.5z" />
    <glyph glyph-name="afii10096" unicode="&#x44e;" horiz-adv-x="741" 
d="M714 263q0 -121 -69 -197q-72 -78 -192 -78q-105 0 -174.5 67.5t-77.5 172.5h-71v-228h-76v513h76v-217h71q12 98 82 165.5t167 67.5q119 0 191.5 -73.5t72.5 -192.5zM452 456q-80 0 -128.5 -59.5t-48.5 -140.5q0 -80 48 -136q51 -59 129 -59q88 0 137 54q46 52 46 142
q0 86 -49 142.5t-134 56.5z" />
    <glyph glyph-name="afii10097" unicode="&#x44f;" horiz-adv-x="442" 
d="M388 0h-76v273l-196 -273h-88l161 215q-156 9 -156 144q0 73 50 115q48 39 122 39h183v-513zM312 275v167h-103q-98 0 -98 -82q0 -85 111 -85h90z" />
    <glyph glyph-name="afii10071" unicode="&#x451;" horiz-adv-x="590" 
d="M433 594h-75v90h75v-90zM230 594h-74v90h74v-90zM560 230h-449q8 -74 58.5 -121t124.5 -47q111 0 162 100h87q-72 -175 -247 -175q-111 0 -188.5 80t-77.5 191q0 114 76.5 191t190.5 77q126 0 197 -87q66 -80 66 -209zM476 299q-37 154 -182 154q-72 0 -121 -41.5
t-62 -112.5h365z" />
    <glyph glyph-name="endash" unicode="&#x2013;" horiz-adv-x="502" 
d="M505 238h-508v62h508v-62z" />
    <glyph glyph-name="emdash" unicode="&#x2014;" horiz-adv-x="1008" 
d="M1011 238h-1014v62h1014v-62z" />
    <glyph glyph-name="quoteleft" unicode="&#x2018;" horiz-adv-x="196" 
d="M97 511l-74 210h70l75 -210h-71z" />
    <glyph glyph-name="quoteright" unicode="&#x2019;" horiz-adv-x="195" 
d="M115 511h-70l74 210h71z" />
    <glyph glyph-name="quotesinglbase" unicode="&#x201a;" horiz-adv-x="195" 
d="M82 -80h-70l74 211h71z" />
    <glyph glyph-name="quotedblleft" unicode="&#x201c;" horiz-adv-x="340" 
d="M98 511l-76 210h72l75 -210h-71zM240 511l-75 210h71l76 -210h-72z" />
    <glyph glyph-name="quotedblright" unicode="&#x201d;" horiz-adv-x="339" 
d="M115 511h-72l76 210h71zM257 511h-71l75 210h72z" />
    <glyph glyph-name="quotedblbase" unicode="&#x201e;" horiz-adv-x="339" 
d="M84 -80h-72l76 211h71zM226 -80h-71l75 211h72z" />
    <glyph glyph-name="dagger" unicode="&#x2020;" horiz-adv-x="502" 
d="M470 444h-178v-558h-82v557h-177v72h177v201h82v-201h178v-71z" />
    <glyph glyph-name="bullet" unicode="&#x2022;" horiz-adv-x="594" 
d="M442 375q0 -60 -43 -103.5t-103 -43.5q-59 0 -102 43.5t-43 102.5q0 60 43 102.5t103 42.5q61 0 103 -41.5t42 -102.5z" />
    <glyph glyph-name="ellipsis" unicode="&#x2026;" horiz-adv-x="1000" 
d="M203 0h-71v130h71v-130zM536 0h-72v130h72v-130zM869 0h-71v130h71v-130z" />
    <glyph glyph-name="perthousand" unicode="&#x2030;" horiz-adv-x="1249" 
d="M1216 162q0 -73 -49.5 -124.5t-122.5 -51.5q-71 0 -122 52t-51 123q0 72 50.5 124t122.5 52t122 -51t50 -124zM803 162q0 -73 -49.5 -124.5t-122.5 -51.5q-71 0 -122 52t-51 123q0 72 50.5 124t122.5 52t122 -51t50 -124zM655 730l-409 -744h-65l410 744h64zM378 554
q0 -72 -50 -124t-122 -52t-122.5 52t-50.5 124t50 124t122 52q73 0 123 -51.5t50 -124.5zM1042 269q-43 0 -73 -32t-30 -75q0 -44 30 -76.5t73 -32.5q44 0 74.5 32t30.5 76q0 45 -30 76.5t-75 31.5zM734 161q0 44 -30 76t-74 32t-74 -31.5t-30 -75.5t30 -76.5t73 -32.5
q44 0 74.5 32t30.5 76zM308 554h1q0 45 -30 76.5t-75 31.5q-44 0 -74 -32t-30 -76t30 -76t74 -32t74 32t30 76z" />
    <glyph glyph-name="guilsinglleft" unicode="&#x2039;" horiz-adv-x="321" 
d="M249 116l-68 -1l-121 155l121 155h68l-120 -155z" />
    <glyph glyph-name="guilsinglright" unicode="&#x203a;" horiz-adv-x="321" 
d="M140 425l121 -154l-121 -156h-68l120 154l-120 156h68z" />
    <glyph glyph-name="afii61352" unicode="&#x2116;" horiz-adv-x="1096" 
d="M1048 316q0 -72 -55 -126t-127 -54q-73 0 -128 51.5t-55 124.5q0 71 54 124t125 53q74 0 130 -50t56 -123zM1031 0h-335v72h335v-72zM617 0h-92l-377 599q0 -7 1 -19v-20v-560h-83v720h95l377 -592q0 9 -2 27t-2 27l-1 538h84v-720zM974 312q0 50 -30.5 79.5t-80.5 29.5
q-47 0 -77 -31t-30 -78q0 -48 31 -78t79 -30t78 30t30 78z" />
    <glyph glyph-name="trademark" unicode="&#x2122;" horiz-adv-x="839" 
d="M712 432h-43v253l-95 -253h-27l-99 252v-252h-44v288h70l87 -222l81 222h70v-288zM335 685h-93v-253h-48v253h-95v35h236v-35z" />
    </font>
</defs>
</svg>
